<?xml version="1.0" encoding="UTF-8" standalone="no"?>
<!DOCTYPE svg PUBLIC "-//W3C//DTD SVG 1.1//EN" "http://www.w3.org/Graphics/SVG/1.1/DTD/svg11.dtd">
<svg version="1.1" xmlns="http://www.w3.org/2000/svg" xmlns:xlink="http://www.w3.org/1999/xlink" preserveAspectRatio="xMidYMid meet" viewBox="0 0 640 640" width="640" height="640"><defs><path d="M631.91 320C631.91 492.15 492.15 631.91 320 631.91C147.85 631.91 8.09 492.15 8.09 320C8.09 147.85 147.85 8.09 320 8.09C492.15 8.09 631.91 147.85 631.91 320Z" id="b1OWb7Lqxq"></path><path d="M346.15 1.07L359.01 2.38L371.73 4.21L384.28 6.53L396.66 9.34L408.86 12.63L420.86 16.38L432.66 20.59L444.25 25.25L455.61 30.34L466.74 35.86L477.62 41.79L488.24 48.12L498.59 54.84L508.67 61.95L518.46 69.43L527.95 77.27L537.14 85.47L546 94L554.53 102.86L562.73 112.05L570.57 121.54L578.05 131.33L585.16 141.41L591.88 151.76L598.21 162.38L604.14 173.26L609.66 184.39L614.75 195.75L619.41 207.34L623.62 219.14L627.37 231.14L630.66 243.34L633.47 255.72L635.79 268.27L637.62 280.99L638.93 293.85L639.73 306.86L640 320L639.73 333.14L638.93 346.15L637.62 359.01L635.79 371.73L633.47 384.28L630.66 396.66L627.37 408.86L623.62 420.86L619.41 432.66L614.75 444.25L609.66 455.61L604.14 466.74L598.21 477.62L591.88 488.24L585.16 498.59L578.05 508.67L570.57 518.46L562.73 527.95L554.53 537.14L546 546L537.14 554.53L527.95 562.73L518.46 570.57L508.67 578.05L498.59 585.16L488.24 591.88L477.62 598.21L466.74 604.14L455.61 609.66L444.25 614.75L432.66 619.41L420.86 623.62L408.86 627.37L396.66 630.66L384.28 633.47L371.73 635.79L359.01 637.62L346.15 638.93L333.14 639.73L320 640L306.86 639.73L293.85 638.93L280.99 637.62L268.27 635.79L255.72 633.47L243.34 630.66L231.14 627.37L219.14 623.62L207.34 619.41L195.75 614.75L184.39 609.66L173.26 604.14L162.38 598.21L151.76 591.88L141.41 585.16L131.33 578.05L121.54 570.57L112.05 562.73L102.86 554.53L94 546L85.47 537.14L77.27 527.95L69.43 518.46L61.95 508.67L54.84 498.59L48.12 488.24L41.79 477.62L35.86 466.74L30.34 455.61L25.25 444.25L20.59 432.66L16.38 420.86L12.63 408.86L9.34 396.66L6.53 384.28L4.21 371.73L2.38 359.01L1.07 346.15L0.27 333.14L0 320L0.27 306.86L1.07 293.85L2.38 280.99L4.21 268.27L6.53 255.72L9.34 243.34L12.63 231.14L16.38 219.14L20.59 207.34L25.25 195.75L30.34 184.39L35.86 173.26L41.79 162.38L48.12 151.76L54.84 141.41L61.95 131.33L69.43 121.54L77.27 112.05L85.47 102.86L94 94L102.86 85.47L112.05 77.27L121.54 69.43L131.33 61.95L141.41 54.84L151.76 48.12L162.38 41.79L173.26 35.86L184.39 30.34L195.75 25.25L207.34 20.59L219.14 16.38L231.14 12.63L243.34 9.34L255.72 6.53L268.27 4.21L280.99 2.38L293.85 1.07L306.86 0.27L320 0L333.14 0.27L346.15 1.07ZM243.78 413.85L240.62 414.99L237.47 416.17L234.34 417.39L231.22 418.65L228.12 419.95L225.03 421.29L221.96 422.67L218.9 424.09L215.87 425.55L212.85 427.05L209.86 428.59L206.88 430.17L203.93 431.79L200.99 433.45L198.08 435.15L195.2 436.89L192.33 438.67L189.5 440.49L186.68 442.35L183.9 444.25L181.14 446.19L178.41 448.17L175.71 450.19L173.04 452.25L170.4 454.35L167.79 456.49L165.21 458.67L162.66 460.89L160.15 463.15L157.67 465.45L155.23 467.79L152.82 470.17L150.45 472.59L148.11 475.05L145.81 477.55L143.55 480.09L141.33 482.67L140.56 483.48L139.83 484.31L139.16 485.15L138.53 486.02L137.95 486.9L137.42 487.79L136.93 488.7L136.49 489.62L136.1 490.56L135.75 491.5L135.45 492.45L135.19 493.42L134.98 494.39L134.8 495.37L134.68 496.35L134.59 497.34L134.55 498.34L134.55 499.33L134.59 500.33L134.67 501.33L134.79 502.33L134.95 503.33L135.14 504.33L135.38 505.32L135.66 506.31L135.97 507.3L136.32 508.28L136.7 509.25L137.13 510.21L137.58 511.17L138.08 512.11L138.6 513.05L139.16 513.97L139.76 514.88L140.39 515.77L141.05 516.65L141.74 517.51L142.46 518.36L143.22 519.19L144 520L147.43 522.97L150.94 525.9L154.51 528.77L158.14 531.59L161.84 534.35L165.61 537.06L169.43 539.7L173.31 542.29L177.25 544.82L181.25 547.29L185.3 549.7L189.41 552.04L193.57 554.32L197.77 556.53L202.03 558.67L206.34 560.75L210.69 562.75L215.08 564.69L219.52 566.55L224 568.33L228.52 570.05L233.08 571.68L237.67 573.24L242.3 574.72L246.97 576.12L251.67 577.44L256.39 578.67L261.15 579.83L265.94 580.89L270.75 581.88L275.59 582.77L280.45 583.57L285.33 584.29L290.23 584.91L295.16 585.44L300.1 585.88L305.05 586.22L310.02 586.47L315.01 586.62L320 586.67L324.99 586.62L329.98 586.47L334.95 586.22L339.9 585.88L344.84 585.44L349.77 584.91L354.67 584.29L359.55 583.57L364.41 582.77L369.25 581.88L374.06 580.89L378.85 579.83L383.61 578.67L388.33 577.44L393.03 576.12L397.7 574.72L402.33 573.24L406.92 571.68L411.48 570.05L416 568.33L420.48 566.55L424.92 564.69L429.31 562.75L433.66 560.75L437.97 558.67L442.23 556.53L446.43 554.32L450.59 552.04L454.7 549.7L458.75 547.29L462.75 544.82L466.69 542.29L470.57 539.7L474.39 537.06L478.16 534.35L481.86 531.59L485.49 528.77L489.06 525.9L492.57 522.97L496 520L496.98 519.19L497.9 518.36L498.78 517.51L499.6 516.65L500.38 515.77L501.11 514.88L501.79 513.97L502.42 513.05L503.01 512.11L503.54 511.17L504.03 510.21L504.47 509.25L504.87 508.28L505.21 507.3L505.52 506.31L505.77 505.32L505.98 504.33L506.14 503.33L506.26 502.33L506.33 501.33L506.36 500.33L506.34 499.33L506.28 498.34L506.18 497.34L506.03 496.35L505.83 495.37L505.6 494.39L505.31 493.42L504.99 492.45L504.63 491.5L504.22 490.56L503.77 489.62L503.27 488.7L502.74 487.79L502.16 486.9L501.54 486.02L500.89 485.15L500.19 484.31L499.45 483.48L498.67 482.67L496.45 480.09L494.21 477.55L491.93 475.05L489.63 472.59L487.29 470.17L484.93 467.79L482.53 465.45L480.11 463.15L477.65 460.89L475.17 458.67L472.65 456.49L470.11 454.35L467.53 452.25L464.93 450.19L462.29 448.17L459.63 446.19L456.93 444.25L454.21 442.35L451.45 440.49L448.67 438.67L445.85 436.89L443.01 435.15L440.13 433.45L437.23 431.79L434.29 430.17L431.33 428.59L428.33 427.05L425.31 425.55L422.25 424.09L419.17 422.67L416.05 421.29L412.91 419.95L409.73 418.65L406.53 417.39L403.29 416.17L400.03 414.99L396.73 413.85L393.41 412.75L390.05 411.69L386.67 410.67L385.07 411.46L383.47 412.23L381.87 412.98L380.26 413.71L378.66 414.42L377.06 415.11L375.45 415.78L373.85 416.43L372.24 417.06L370.63 417.67L369.01 418.26L367.39 418.83L365.78 419.38L364.15 419.91L362.53 420.42L360.9 420.91L359.26 421.38L357.62 421.83L355.98 422.26L354.33 422.67L352.68 423.06L351.02 423.43L349.36 423.78L347.69 424.11L346.02 424.42L344.33 424.71L342.65 424.98L340.95 425.23L339.25 425.46L337.54 425.67L335.83 425.86L334.1 426.03L332.37 426.18L330.63 426.31L328.88 426.42L327.12 426.51L325.36 426.58L323.58 426.63L321.8 426.66L320 426.67L318.2 426.66L316.42 426.63L314.64 426.58L312.88 426.51L311.12 426.42L309.37 426.31L307.63 426.18L305.9 426.03L304.17 425.86L302.46 425.67L300.75 425.46L299.05 425.23L297.35 424.98L295.67 424.71L293.98 424.42L292.31 424.11L290.64 423.78L288.98 423.43L287.32 423.06L285.67 422.67L284.02 422.26L282.38 421.83L280.74 421.38L279.1 420.91L277.47 420.42L275.85 419.91L274.22 419.38L272.61 418.83L270.99 418.26L269.38 417.67L267.76 417.06L266.15 416.43L264.55 415.78L262.94 415.11L261.34 414.42L259.74 413.71L258.13 412.98L256.53 412.23L254.93 411.46L253.33 410.67L250.14 411.69L246.95 412.75L243.78 413.85ZM311.28 107.1L307 107.64L302.76 108.38L298.57 109.33L294.45 110.48L290.38 111.83L286.38 113.37L282.45 115.09L278.58 117L274.8 119.09L271.09 121.35L267.46 123.79L263.92 126.4L260.47 129.17L257.11 132.1L253.85 135.18L250.68 138.42L247.62 141.8L244.67 145.33L241.82 149L239.09 152.81L236.48 156.75L233.98 160.81L231.61 165L229.37 169.31L227.26 173.73L225.29 178.27L223.45 182.92L221.75 187.67L220.2 192.52L218.79 197.46L217.54 202.5L216.45 207.62L215.51 212.83L214.74 218.12L214.13 223.49L213.69 228.93L213.42 234.43L213.33 240L213.42 245.57L213.69 251.07L214.13 256.51L214.74 261.88L215.51 267.17L216.45 272.38L217.54 277.5L218.79 282.54L220.2 287.48L221.75 292.33L223.45 297.08L225.29 301.73L227.26 306.27L229.37 310.69L231.61 315L233.98 319.19L236.48 323.25L239.09 327.19L241.82 331L244.67 334.67L247.62 338.2L250.68 341.58L253.85 344.82L257.11 347.9L260.47 350.83L263.92 353.6L267.46 356.21L271.09 358.65L274.8 360.91L278.58 363L282.45 364.91L286.38 366.63L290.38 368.17L294.45 369.52L298.57 370.67L302.76 371.62L307 372.36L311.28 372.9L315.62 373.22L320 373.33L324.38 373.22L328.72 372.9L333 372.36L337.24 371.62L341.43 370.67L345.55 369.52L349.62 368.17L353.62 366.63L357.55 364.91L361.42 363L365.2 360.91L368.91 358.65L372.54 356.21L376.08 353.6L379.53 350.83L382.89 347.9L386.15 344.82L389.32 341.58L392.38 338.2L395.33 334.67L398.18 331L400.91 327.19L403.52 323.25L406.02 319.19L408.39 315L410.63 310.69L412.74 306.27L414.71 301.73L416.55 297.08L418.25 292.33L419.8 287.48L421.21 282.54L422.46 277.5L423.55 272.38L424.49 267.17L425.26 261.88L425.87 256.51L426.31 251.07L426.58 245.57L426.67 240L426.58 234.43L426.31 228.93L425.87 223.49L425.26 218.12L424.49 212.83L423.55 207.62L422.46 202.5L421.21 197.46L419.8 192.52L418.25 187.67L416.55 182.92L414.71 178.27L412.74 173.73L410.63 169.31L408.39 165L406.02 160.81L403.52 156.75L400.91 152.81L398.18 149L395.33 145.33L392.38 141.8L389.32 138.42L386.15 135.18L382.89 132.1L379.53 129.17L376.08 126.4L372.54 123.79L368.91 121.35L365.2 119.09L361.42 117L357.55 115.09L353.62 113.37L349.62 111.83L345.55 110.48L341.43 109.33L337.24 108.38L333 107.64L328.72 107.1L324.38 106.78L320 106.67L315.62 106.78L311.28 107.1Z" id="a2JuCYsjk8"></path></defs><g><g><g><use xlink:href="#b1OWb7Lqxq" opacity="1" fill="#ffffff" fill-opacity="1"></use></g><g><use xlink:href="#a2JuCYsjk8" opacity="1" fill="#004085" fill-opacity="1"></use><g><use xlink:href="#a2JuCYsjk8" opacity="1" fill-opacity="0" stroke="#000000" stroke-width="1" stroke-opacity="0"></use></g></g></g></g></svg>